<svg xmlns="http://www.w3.org/2000/svg" xmlns:xlink="http://www.w3.org/1999/xlink" width="250" zoomAndPan="magnify" viewBox="0 0 187.5 262.500001" height="350" preserveAspectRatio="xMidYMid meet" version="1.0"><defs><clipPath id="0b775286ff"><path d="M 51.003906 18.800781 L 136 18.800781 L 136 243 L 51.003906 243 Z M 51.003906 18.800781 " clip-rule="nonzero"/></clipPath></defs><g clip-path="url(#0b775286ff)"><path fill="#ff0000" d="M 82.101562 160.039062 C 82.375 161.367188 82.375 162.457031 81.964844 163.714844 C 81.488281 165.074219 81.082031 166.640625 81.148438 168.070312 C 81.21875 169.328125 81.726562 170.453125 81.964844 171.640625 C 82.136719 172.527344 81.558594 173.855469 81.21875 174.738281 C 80.777344 175.894531 80.367188 176.8125 80.402344 178.074219 C 80.433594 179.160156 80.945312 180.285156 80.742188 181.375 C 80.570312 182.429688 79.890625 183.652344 79.378906 184.570312 C 78.734375 185.695312 78.324219 186.953125 78.597656 188.3125 C 78.769531 189.199219 79.414062 189.878906 80.128906 190.527344 C 79.925781 190.867188 79.722656 191.171875 79.585938 191.476562 C 79.277344 192.226562 79.140625 192.875 79.140625 193.691406 C 79.140625 195.050781 79.175781 196.445312 79.210938 197.808594 C 79.3125 200.765625 79.890625 203.589844 79.789062 206.550781 C 79.753906 207.402344 79.824219 208.21875 79.992188 209.070312 C 79.414062 209.714844 79.210938 210.53125 79.3125 211.449219 C 79.449219 212.335938 79.824219 212.949219 80.300781 213.527344 C 79.960938 214.070312 79.753906 215.023438 79.753906 215.328125 C 79.753906 215.738281 79.960938 216.382812 80.300781 216.894531 C 80.164062 217.066406 80.027344 217.269531 79.960938 217.609375 C 79.824219 218.222656 79.753906 218.9375 79.890625 219.546875 C 80.0625 220.433594 80.433594 221.179688 81.148438 221.554688 C 81.015625 222.371094 80.742188 223.054688 80.300781 223.835938 C 79.789062 224.753906 79.890625 225.773438 79.855469 226.796875 C 79.824219 227.78125 79.992188 228.769531 79.855469 229.722656 C 79.722656 230.707031 79.550781 231.660156 79.550781 232.679688 C 79.515625 233.429688 79.585938 234.28125 79.6875 235.0625 C 78.972656 236.96875 78.429688 239.144531 79.6875 240.949219 C 81.015625 242.855469 83.496094 243.058594 85.574219 242.921875 C 87.613281 242.785156 90.132812 242.71875 91.96875 241.699219 C 94.078125 240.507812 93.296875 238.261719 92.753906 236.320312 C 92.207031 234.347656 92.070312 232.410156 92.070312 230.402344 C 92.277344 230.027344 92.480469 229.6875 92.71875 229.3125 C 93.535156 227.917969 93.941406 226.523438 93.464844 224.992188 C 93.261719 224.242188 93.125 223.496094 92.921875 222.78125 C 92.820312 222.339844 92.648438 221.894531 92.480469 221.453125 C 93.023438 220.808594 93.332031 219.753906 93.332031 219.175781 C 93.332031 218.902344 93.160156 217.949219 92.886719 217.335938 C 93.226562 216.859375 93.464844 216.351562 93.535156 215.839844 C 93.570312 215.535156 93.535156 215.058594 93.433594 214.582031 C 93.363281 214.171875 93.226562 213.765625 93.058594 213.425781 C 93.296875 212.574219 93.535156 211.757812 93.636719 210.839844 C 93.671875 210.566406 93.703125 210.328125 93.738281 210.054688 C 93.839844 208.964844 93.910156 207.84375 94.011719 206.722656 C 94.214844 204.644531 94.726562 202.976562 95.574219 201.105469 C 96.257812 199.574219 96.867188 198.148438 97.175781 196.480469 C 97.3125 195.730469 97.277344 195.1875 97.003906 194.472656 C 96.972656 194.371094 96.9375 194.269531 96.867188 194.132812 C 97.6875 193.453125 98.398438 192.667969 98.503906 191.648438 C 98.570312 190.796875 98.367188 189.640625 98.265625 188.789062 C 98.195312 188.144531 98.160156 187.429688 98.09375 186.714844 C 98.503906 186.171875 98.945312 185.625 99.320312 185.046875 C 100.644531 183.039062 101.429688 181.203125 101.328125 178.753906 C 101.257812 177.222656 101.53125 175.519531 101.90625 174.058594 C 102.175781 173.003906 102.722656 171.8125 103.027344 170.691406 C 103.0625 170.792969 103.0625 170.859375 103.09375 170.929688 C 103.367188 171.8125 103.675781 172.695312 103.980469 173.582031 C 104.421875 174.839844 104.898438 175.863281 104.695312 177.222656 C 104.59375 177.800781 104.457031 178.378906 104.421875 178.957031 C 104.386719 179.535156 104.625 179.976562 104.625 180.523438 C 104.625 181.101562 104.253906 181.613281 104.117188 182.191406 C 103.945312 182.835938 103.808594 183.585938 103.910156 184.265625 C 103.980469 184.910156 104.421875 185.523438 104.964844 186.035156 C 104.457031 186.613281 104.117188 187.328125 104.082031 188.042969 C 103.980469 189.84375 104.082031 191.648438 104.253906 193.453125 C 104.625 197.433594 104.898438 201.480469 105 205.460938 C 105.035156 206.753906 105.171875 208.082031 105.136719 209.410156 C 104.761719 209.714844 104.421875 210.394531 104.355469 210.769531 C 104.253906 211.210938 104.285156 211.550781 104.421875 211.859375 C 103.367188 212.710938 103.605469 214.886719 104.355469 216.144531 C 103.777344 217.199219 103.46875 218.289062 103.503906 219.617188 C 103.539062 221.285156 103.46875 222.949219 103.46875 224.617188 C 103.46875 226.457031 104.558594 227.203125 106.226562 227.476562 C 108.675781 227.851562 111.226562 228.019531 113.675781 227.679688 C 115.378906 228.699219 117.417969 229.382812 119.222656 229.585938 C 121.636719 229.824219 124.632812 229.722656 127.046875 229.621094 C 128.75 229.550781 132.527344 229.347656 132.152344 226.691406 C 131.8125 224.277344 128.546875 223.460938 126.707031 222.847656 C 124.632812 222.167969 122.796875 221.148438 120.957031 219.957031 C 120.855469 218.867188 120.109375 217.710938 119.15625 217.4375 C 119.5625 216.28125 118.917969 214.308594 117.929688 214.242188 C 117.929688 213.867188 117.929688 213.492188 117.894531 213.289062 C 117.792969 212.574219 117.417969 212.199219 116.910156 211.925781 C 117.554688 211.078125 117.964844 209.953125 118.03125 208.964844 C 118.371094 204.851562 119.054688 200.734375 119.699219 196.648438 C 120.003906 194.539062 120.515625 192.464844 121.027344 190.390625 C 121.296875 189.300781 121.367188 188.246094 120.753906 187.632812 C 120.992188 187.394531 121.195312 187.15625 121.367188 186.917969 C 122.148438 185.898438 122.183594 185.386719 121.773438 184.195312 C 121.46875 183.347656 120.957031 182.429688 120.789062 181.542969 C 120.582031 180.523438 121.296875 179.773438 121.433594 178.820312 C 121.570312 177.835938 121.09375 176.917969 120.820312 175.996094 C 120.582031 175.148438 120.855469 174.058594 120.957031 173.140625 C 121.195312 171.132812 122.25 169.398438 122.558594 167.355469 C 122.761719 165.824219 122.660156 163.953125 122.183594 162.355469 C 122.761719 161.808594 123.339844 160.855469 123.613281 160.414062 C 124.222656 159.324219 124.632812 158.953125 124.292969 157.660156 C 123.78125 155.820312 123.167969 154.121094 123 152.179688 C 122.828125 150.105469 123.136719 148.097656 123.167969 146.023438 C 123.203125 144.183594 122.691406 142.28125 122.828125 140.476562 C 122.929688 139.285156 123.238281 137.925781 123.714844 136.734375 L 131.0625 164.464844 C 132.664062 165.757812 132.933594 164.15625 132.933594 164.15625 L 128.851562 144.558594 C 129.328125 144.320312 129.632812 143.945312 129.839844 143.503906 C 130.65625 143.605469 131.777344 143.199219 132.21875 142.550781 C 132.902344 142.585938 133.546875 142.414062 134.058594 141.90625 C 134.703125 141.226562 134.875 140.171875 135.042969 139.25 C 135.25 138.164062 135.691406 137.109375 135.792969 135.984375 C 135.996094 134.113281 135.792969 132.308594 134.535156 130.984375 C 134.839844 130.066406 134.535156 128.464844 134.195312 127.785156 C 133.683594 126.765625 133.105469 125.8125 132.59375 124.792969 C 132.050781 123.667969 131.914062 122.410156 131.949219 121.152344 C 131.980469 120.027344 132.117188 118.734375 131.675781 117.679688 C 131.4375 117.136719 130.382812 116.082031 129.566406 115.742188 C 129.5 114.277344 129.429688 112.816406 129.054688 111.453125 C 129.125 111.453125 129.15625 111.417969 129.191406 111.386719 C 129.972656 111.078125 130.65625 110.738281 131.265625 110.160156 C 132.117188 109.378906 132.933594 108.597656 133.785156 107.882812 C 133.582031 107.167969 133.308594 106.113281 133.171875 105.773438 C 132.390625 103.832031 131.574219 101.6875 131.027344 99.648438 C 130.757812 98.59375 130.722656 97.640625 130.722656 96.515625 C 130.722656 95.90625 130.621094 94.882812 130.894531 94.136719 C 130.347656 93.625 129.703125 93.183594 129.191406 92.636719 C 128.679688 92.09375 128.238281 91.480469 127.796875 90.871094 C 127.863281 90.496094 127.933594 90.085938 127.96875 89.679688 C 128 89.203125 128.070312 88.351562 128.035156 87.636719 C 129.125 87.195312 129.394531 86.886719 129.703125 85.355469 C 129.90625 84.472656 130.144531 83.007812 130.078125 82.125 C 130.007812 81.445312 129.972656 80.730469 129.839844 80.050781 C 130.554688 79.8125 131.0625 79.472656 131.335938 78.960938 C 132.1875 77.363281 131.335938 74.878906 130.859375 73.246094 C 130.28125 71.136719 129.292969 69.265625 127.863281 67.597656 C 125.515625 64.839844 124.667969 63.410156 121.402344 62.492188 C 121.433594 62.222656 120.34375 59.363281 115.277344 60.214844 C 115.242188 60.078125 115.175781 59.976562 115.105469 59.90625 C 114.664062 59.261719 113.777344 59.058594 113.097656 58.886719 C 111.804688 58.511719 110.582031 58.582031 109.289062 58.648438 C 110.480469 54.941406 107.449219 55.621094 105.851562 56.574219 C 105.886719 56.503906 105.953125 56.4375 105.988281 56.367188 C 106.632812 55.449219 107.28125 54.292969 107.347656 53.136719 C 107.417969 51.910156 107.210938 50.722656 107.28125 49.496094 C 107.347656 48.066406 109.050781 44.835938 107.417969 43.746094 C 108.027344 42.417969 108.335938 39.867188 107.246094 38.8125 C 108.097656 34.761719 106.328125 29.898438 102.449219 28.332031 C 101.460938 27.925781 100.476562 27.824219 99.453125 27.753906 C 99.148438 27.140625 98.945312 26.53125 98.910156 25.746094 C 98.875 24.554688 99.320312 24.25 100.101562 24.113281 C 100.203125 23.261719 100.441406 22.242188 100.578125 21.425781 C 100.679688 20.8125 100.78125 20.203125 100.917969 19.589844 C 100.953125 19.382812 101.019531 19.144531 101.089844 18.941406 C 98.910156 18.941406 96.664062 19.011719 94.589844 19.859375 C 92.34375 20.78125 90.574219 22.550781 89.382812 24.691406 C 87.273438 28.46875 86.796875 33.335938 86.492188 37.722656 C 86.289062 37.757812 86.117188 37.824219 85.878906 37.824219 C 85.265625 37.859375 84.757812 37.824219 84.179688 37.65625 C 84.042969 38.402344 85.027344 39.695312 85.4375 40.308594 C 85.710938 40.71875 86.015625 40.988281 86.320312 41.226562 C 86.320312 42.929688 86.492188 44.5625 86.796875 46.261719 C 86.355469 46.46875 85.914062 46.808594 85.605469 47.011719 C 85.027344 47.386719 84.347656 47.726562 83.871094 48.269531 C 83.328125 48.847656 83.054688 50.140625 83.496094 50.925781 C 82.917969 51.195312 82.273438 51.707031 81.933594 52.082031 C 81.523438 52.558594 81.457031 52.964844 81.523438 53.410156 C 80.742188 53.648438 79.722656 54.363281 79.347656 54.667969 C 78.871094 55.074219 78.257812 55.757812 77.917969 56.4375 C 76.828125 55.925781 75.570312 55.585938 74.445312 55.550781 C 72.8125 55.484375 72.472656 56.878906 72.710938 58.207031 C 70.058594 58.511719 67.4375 59.703125 65.976562 62.085938 C 64.511719 64.464844 63.558594 67.1875 63.457031 70.011719 C 63.421875 71.066406 63.527344 71.984375 63.796875 72.9375 C 62.605469 73.855469 61.621094 76.101562 61.347656 77.363281 C 61.144531 78.347656 61.449219 79.265625 61.722656 80.1875 C 61.960938 81.035156 62.128906 81.953125 62.4375 82.804688 C 62.027344 83.828125 61.550781 84.8125 61.179688 85.867188 C 60.667969 87.230469 60.734375 88.894531 62.199219 89.542969 C 62.335938 89.609375 62.503906 89.679688 62.675781 89.710938 C 62.539062 90.289062 62.367188 90.972656 62.265625 91.652344 C 61.484375 91.378906 60.703125 91.242188 60.191406 91.414062 C 58.726562 91.925781 59.035156 94.167969 59.101562 95.394531 C 59.238281 97.808594 59.578125 100.15625 59.578125 102.574219 C 58.964844 104.242188 58.046875 105.839844 57.503906 107.539062 C 56.515625 110.535156 58.320312 111.011719 60.464844 110.839844 C 60.734375 112.03125 61.449219 113.054688 62.300781 113.902344 C 61.960938 114.890625 61.824219 116.082031 61.960938 116.625 C 62.265625 117.816406 63.390625 118.804688 64.207031 119.6875 C 65.292969 120.84375 65.875 121.933594 66.382812 123.464844 C 66.996094 125.335938 67.234375 128.296875 68.628906 129.960938 C 68.355469 131.121094 68.492188 132.515625 68.867188 133.261719 C 69.171875 133.910156 70.433594 135.101562 71.113281 136.054688 C 71.011719 137.003906 71.042969 138.058594 71.011719 138.878906 C 70.941406 140.171875 70.976562 141.464844 71.011719 142.757812 C 71.042969 143.914062 70.875 145.445312 71.214844 146.53125 C 71.386719 147.042969 72.066406 147.792969 72.710938 148.0625 C 72.882812 150.511719 73.425781 154.359375 75.296875 155.34375 L 51.003906 212.0625 L 51.074219 217.914062 L 55.324219 215.464844 L 81.660156 158.441406 C 81.796875 158.984375 82 159.5625 82.101562 160.039062 Z M 125.175781 127.035156 C 125.6875 127.785156 126.164062 128.535156 126.605469 129.316406 C 127.015625 130.03125 127.355469 130.78125 127.695312 131.527344 C 127.898438 131.96875 128.207031 132.378906 128.410156 132.820312 C 128.101562 133.332031 127.796875 133.808594 127.523438 134.316406 C 127.253906 134.863281 127.117188 135.371094 126.980469 135.917969 Z M 121.742188 115.164062 C 122.113281 115.742188 122.523438 116.589844 122.691406 116.863281 C 123.035156 117.40625 123.40625 118.019531 123.851562 118.53125 C 123.273438 118.734375 122.625 119.109375 122.113281 119.515625 C 122.082031 118.734375 122.011719 117.953125 121.945312 117.167969 C 121.875 116.589844 121.773438 116.011719 121.742188 115.433594 C 121.742188 115.332031 121.742188 115.230469 121.742188 115.164062 Z M 106.871094 38.539062 C 106.839844 38.539062 106.804688 38.539062 106.734375 38.472656 C 106.804688 38.507812 106.839844 38.539062 106.871094 38.539062 Z M 93.941406 45.3125 C 94.011719 44.835938 94.078125 44.359375 94.148438 43.882812 C 94.792969 44.222656 95.472656 44.765625 96.121094 44.972656 C 97.957031 45.617188 99.828125 45.890625 101.769531 45.921875 C 102.789062 45.921875 103.777344 45.71875 104.796875 45.515625 C 105.238281 45.414062 106.464844 44.867188 107.109375 44.800781 C 107.144531 45.175781 107.109375 45.617188 107.109375 46.027344 C 106.632812 46.195312 106.125 46.535156 105.648438 46.671875 C 104.933594 46.910156 104.183594 47.183594 103.46875 47.320312 C 103.367188 49.53125 103.332031 51.742188 103.332031 53.988281 C 102.6875 54.054688 102.039062 54.191406 101.359375 54.191406 C 101.394531 53.613281 101.429688 53 101.429688 52.421875 C 101.460938 51.605469 101.394531 50.789062 101.429688 49.972656 C 101.429688 49.257812 101.597656 48.476562 101.597656 47.726562 C 99.351562 47.285156 96.902344 47.082031 94.828125 45.921875 C 94.519531 45.71875 94.214844 45.515625 93.941406 45.3125 Z M 79.824219 122.613281 C 79.617188 124.859375 79.617188 127.34375 79.007812 129.589844 C 78.191406 127.207031 78.191406 123.804688 77.953125 121.558594 C 77.847656 120.539062 78.085938 117.75 77.507812 116.933594 C 77.304688 116.695312 77 116.488281 76.625 116.351562 C 76.792969 115.058594 76.625 113.53125 76.589844 112.441406 C 76.558594 111.214844 76.558594 108.800781 76.148438 107.269531 C 77.507812 106.484375 78.632812 105.296875 79.175781 103.765625 C 79.824219 105.023438 80.707031 106.179688 81.253906 107.40625 C 81.726562 108.460938 81.355469 110.125 81.964844 111.078125 C 82.273438 111.523438 82.851562 111.792969 83.464844 111.964844 C 83.328125 113.222656 83.125 114.6875 83.089844 115.230469 C 83.054688 116.320312 82.953125 117.613281 83.019531 118.804688 C 82.171875 118.90625 81.253906 119.210938 80.878906 119.484375 C 79.855469 120.230469 79.925781 121.457031 79.824219 122.613281 Z M 79.824219 122.613281 " fill-opacity="1" fill-rule="nonzero"/></g></svg>