<svg xmlns="http://www.w3.org/2000/svg" xmlns:xlink="http://www.w3.org/1999/xlink" width="250" zoomAndPan="magnify" viewBox="0 0 187.5 262.500001" height="350" preserveAspectRatio="xMidYMid meet" version="1.0"><defs><clipPath id="fe7da7998a"><path d="M 51.003906 18.800781 L 136.277344 18.800781 L 136.277344 243 L 51.003906 243 Z M 51.003906 18.800781 " clip-rule="nonzero"/></clipPath></defs><g clip-path="url(#fe7da7998a)"><path fill="#000000" d="M 82.207031 160.039062 C 82.476562 161.367188 82.476562 162.457031 82.070312 163.714844 C 81.589844 165.074219 81.179688 166.640625 81.25 168.070312 C 81.316406 169.328125 81.828125 170.453125 82.070312 171.640625 C 82.238281 172.527344 81.660156 173.855469 81.316406 174.738281 C 80.875 175.894531 80.464844 176.8125 80.5 178.074219 C 80.53125 179.160156 81.042969 180.285156 80.839844 181.375 C 80.667969 182.429688 79.988281 183.652344 79.472656 184.570312 C 78.824219 185.695312 78.417969 186.953125 78.6875 188.3125 C 78.859375 189.199219 79.507812 189.878906 80.226562 190.527344 C 80.019531 190.867188 79.816406 191.171875 79.679688 191.476562 C 79.371094 192.226562 79.234375 192.875 79.234375 193.691406 C 79.234375 195.050781 79.269531 196.445312 79.304688 197.808594 C 79.40625 200.765625 79.988281 203.589844 79.882812 206.550781 C 79.851562 207.402344 79.917969 208.21875 80.089844 209.070312 C 79.507812 209.714844 79.304688 210.53125 79.40625 211.449219 C 79.542969 212.335938 79.917969 212.949219 80.394531 213.527344 C 80.054688 214.070312 79.851562 215.023438 79.851562 215.328125 C 79.851562 215.738281 80.054688 216.382812 80.394531 216.894531 C 80.257812 217.066406 80.121094 217.269531 80.054688 217.609375 C 79.917969 218.222656 79.851562 218.9375 79.988281 219.546875 C 80.15625 220.433594 80.53125 221.179688 81.25 221.554688 C 81.113281 222.371094 80.839844 223.054688 80.394531 223.835938 C 79.882812 224.753906 79.988281 225.773438 79.953125 226.796875 C 79.917969 227.78125 80.089844 228.769531 79.953125 229.722656 C 79.816406 230.707031 79.644531 231.660156 79.644531 232.679688 C 79.609375 233.429688 79.679688 234.28125 79.78125 235.0625 C 79.066406 236.96875 78.519531 239.144531 79.78125 240.949219 C 81.113281 242.855469 83.605469 243.058594 85.6875 242.921875 C 87.734375 242.785156 90.261719 242.71875 92.105469 241.699219 C 94.222656 240.507812 93.4375 238.261719 92.890625 236.320312 C 92.34375 234.347656 92.207031 232.410156 92.207031 230.402344 C 92.410156 230.027344 92.617188 229.6875 92.855469 229.3125 C 93.675781 227.917969 94.085938 226.523438 93.605469 224.992188 C 93.402344 224.242188 93.265625 223.496094 93.0625 222.78125 C 92.957031 222.339844 92.789062 221.894531 92.617188 221.453125 C 93.164062 220.808594 93.46875 219.753906 93.46875 219.175781 C 93.46875 218.902344 93.300781 217.949219 93.027344 217.335938 C 93.367188 216.859375 93.605469 216.351562 93.675781 215.839844 C 93.710938 215.535156 93.675781 215.058594 93.574219 214.582031 C 93.503906 214.171875 93.367188 213.765625 93.195312 213.425781 C 93.4375 212.574219 93.675781 211.757812 93.777344 210.839844 C 93.8125 210.566406 93.847656 210.328125 93.878906 210.054688 C 93.980469 208.964844 94.050781 207.84375 94.152344 206.722656 C 94.359375 204.644531 94.871094 202.976562 95.722656 201.105469 C 96.40625 199.574219 97.019531 198.148438 97.328125 196.480469 C 97.464844 195.730469 97.429688 195.1875 97.15625 194.472656 C 97.121094 194.371094 97.089844 194.269531 97.019531 194.132812 C 97.839844 193.453125 98.554688 192.667969 98.660156 191.648438 C 98.726562 190.796875 98.523438 189.640625 98.421875 188.789062 C 98.351562 188.144531 98.316406 187.429688 98.25 186.714844 C 98.660156 186.171875 99.101562 185.625 99.476562 185.046875 C 100.808594 183.039062 101.59375 181.203125 101.492188 178.753906 C 101.425781 177.222656 101.695312 175.519531 102.074219 174.058594 C 102.34375 173.003906 102.890625 171.8125 103.199219 170.691406 C 103.234375 170.792969 103.234375 170.859375 103.265625 170.929688 C 103.539062 171.8125 103.847656 172.695312 104.15625 173.582031 C 104.597656 174.839844 105.078125 175.863281 104.871094 177.222656 C 104.769531 177.800781 104.632812 178.378906 104.597656 178.957031 C 104.566406 179.535156 104.804688 179.976562 104.804688 180.523438 C 104.804688 181.101562 104.429688 181.613281 104.292969 182.191406 C 104.121094 182.835938 103.984375 183.585938 104.085938 184.265625 C 104.15625 184.910156 104.597656 185.523438 105.144531 186.035156 C 104.632812 186.613281 104.292969 187.328125 104.257812 188.042969 C 104.15625 189.84375 104.257812 191.648438 104.429688 193.453125 C 104.804688 197.433594 105.078125 201.480469 105.179688 205.460938 C 105.214844 206.753906 105.351562 208.082031 105.316406 209.410156 C 104.941406 209.714844 104.597656 210.394531 104.53125 210.769531 C 104.429688 211.210938 104.460938 211.550781 104.597656 211.859375 C 103.539062 212.710938 103.78125 214.886719 104.53125 216.144531 C 103.949219 217.199219 103.644531 218.289062 103.675781 219.617188 C 103.710938 221.285156 103.644531 222.949219 103.644531 224.617188 C 103.644531 226.457031 104.734375 227.203125 106.40625 227.476562 C 108.867188 227.851562 111.425781 228.019531 113.882812 227.679688 C 115.589844 228.699219 117.640625 229.382812 119.449219 229.585938 C 121.871094 229.824219 124.875 229.722656 127.300781 229.621094 C 129.007812 229.550781 132.796875 229.347656 132.417969 226.691406 C 132.078125 224.277344 128.800781 223.460938 126.957031 222.847656 C 124.875 222.167969 123.03125 221.148438 121.1875 219.957031 C 121.085938 218.867188 120.335938 217.710938 119.378906 217.4375 C 119.789062 216.28125 119.140625 214.308594 118.152344 214.242188 C 118.152344 213.867188 118.152344 213.492188 118.117188 213.289062 C 118.015625 212.574219 117.640625 212.199219 117.125 211.925781 C 117.773438 211.078125 118.183594 209.953125 118.253906 208.964844 C 118.59375 204.851562 119.277344 200.734375 119.925781 196.648438 C 120.234375 194.539062 120.746094 192.464844 121.257812 190.390625 C 121.53125 189.300781 121.597656 188.246094 120.984375 187.632812 C 121.222656 187.394531 121.429688 187.15625 121.597656 186.917969 C 122.382812 185.898438 122.417969 185.386719 122.007812 184.195312 C 121.699219 183.347656 121.1875 182.429688 121.019531 181.542969 C 120.8125 180.523438 121.53125 179.773438 121.667969 178.820312 C 121.804688 177.835938 121.324219 176.917969 121.050781 175.996094 C 120.8125 175.148438 121.085938 174.058594 121.1875 173.140625 C 121.429688 171.132812 122.484375 169.398438 122.792969 167.355469 C 123 165.824219 122.894531 163.953125 122.417969 162.355469 C 123 161.808594 123.578125 160.855469 123.851562 160.414062 C 124.464844 159.324219 124.875 158.953125 124.535156 157.660156 C 124.023438 155.820312 123.40625 154.121094 123.238281 152.179688 C 123.066406 150.105469 123.375 148.097656 123.40625 146.023438 C 123.441406 144.183594 122.929688 142.28125 123.066406 140.476562 C 123.167969 139.285156 123.476562 137.925781 123.953125 136.734375 L 131.328125 164.464844 C 132.933594 165.757812 133.203125 164.15625 133.203125 164.15625 L 129.109375 144.558594 C 129.585938 144.320312 129.894531 143.945312 130.097656 143.503906 C 130.917969 143.605469 132.042969 143.199219 132.488281 142.550781 C 133.171875 142.585938 133.820312 142.414062 134.332031 141.90625 C 134.980469 141.226562 135.152344 140.171875 135.320312 139.25 C 135.527344 138.164062 135.96875 137.109375 136.074219 135.984375 C 136.277344 134.113281 136.074219 132.308594 134.808594 130.984375 C 135.117188 130.066406 134.808594 128.464844 134.46875 127.785156 C 133.957031 126.765625 133.375 125.8125 132.863281 124.792969 C 132.316406 123.667969 132.179688 122.410156 132.214844 121.152344 C 132.25 120.027344 132.386719 118.734375 131.941406 117.679688 C 131.703125 117.136719 130.644531 116.082031 129.824219 115.742188 C 129.757812 114.277344 129.6875 112.816406 129.3125 111.453125 C 129.382812 111.453125 129.414062 111.417969 129.449219 111.386719 C 130.234375 111.078125 130.917969 110.738281 131.53125 110.160156 C 132.386719 109.378906 133.203125 108.597656 134.058594 107.882812 C 133.855469 107.167969 133.582031 106.113281 133.445312 105.773438 C 132.660156 103.832031 131.839844 101.6875 131.292969 99.648438 C 131.019531 98.59375 130.984375 97.640625 130.984375 96.515625 C 130.984375 95.90625 130.882812 94.882812 131.15625 94.136719 C 130.609375 93.625 129.960938 93.183594 129.449219 92.636719 C 128.9375 92.09375 128.496094 91.480469 128.050781 90.871094 C 128.117188 90.496094 128.1875 90.085938 128.222656 89.679688 C 128.253906 89.203125 128.324219 88.351562 128.289062 87.636719 C 129.382812 87.195312 129.65625 86.886719 129.960938 85.355469 C 130.167969 84.472656 130.40625 83.007812 130.335938 82.125 C 130.269531 81.445312 130.234375 80.730469 130.097656 80.050781 C 130.816406 79.8125 131.328125 79.472656 131.601562 78.960938 C 132.453125 77.363281 131.601562 74.878906 131.121094 73.246094 C 130.542969 71.136719 129.550781 69.265625 128.117188 67.597656 C 125.761719 64.839844 124.910156 63.410156 121.632812 62.492188 C 121.667969 62.222656 120.574219 59.363281 115.488281 60.214844 C 115.453125 60.078125 115.386719 59.976562 115.316406 59.90625 C 114.875 59.261719 113.984375 59.058594 113.304688 58.886719 C 112.007812 58.511719 110.777344 58.582031 109.480469 58.648438 C 110.675781 54.941406 107.636719 55.621094 106.03125 56.574219 C 106.066406 56.503906 106.136719 56.4375 106.167969 56.367188 C 106.816406 55.449219 107.464844 54.292969 107.535156 53.136719 C 107.601562 51.910156 107.398438 50.722656 107.464844 49.496094 C 107.535156 48.066406 109.242188 44.835938 107.601562 43.746094 C 108.21875 42.417969 108.523438 39.867188 107.433594 38.8125 C 108.285156 34.761719 106.511719 29.898438 102.617188 28.332031 C 101.628906 27.925781 100.640625 27.824219 99.613281 27.753906 C 99.308594 27.140625 99.101562 26.53125 99.070312 25.746094 C 99.035156 24.554688 99.476562 24.25 100.261719 24.113281 C 100.367188 23.261719 100.605469 22.242188 100.742188 21.425781 C 100.84375 20.8125 100.945312 20.203125 101.082031 19.589844 C 101.117188 19.382812 101.183594 19.144531 101.253906 18.941406 C 99.070312 18.941406 96.816406 19.011719 94.734375 19.859375 C 92.480469 20.78125 90.707031 22.550781 89.511719 24.691406 C 87.394531 28.46875 86.917969 33.335938 86.609375 37.722656 C 86.402344 37.757812 86.234375 37.824219 85.996094 37.824219 C 85.378906 37.859375 84.867188 37.824219 84.289062 37.65625 C 84.152344 38.402344 85.140625 39.695312 85.550781 40.308594 C 85.824219 40.71875 86.132812 40.988281 86.4375 41.226562 C 86.4375 42.929688 86.609375 44.5625 86.917969 46.261719 C 86.472656 46.46875 86.027344 46.808594 85.722656 47.011719 C 85.140625 47.386719 84.457031 47.726562 83.980469 48.269531 C 83.433594 48.847656 83.160156 50.140625 83.605469 50.925781 C 83.023438 51.195312 82.375 51.707031 82.035156 52.082031 C 81.625 52.558594 81.558594 52.964844 81.625 53.410156 C 80.839844 53.648438 79.816406 54.363281 79.441406 54.667969 C 78.960938 55.074219 78.347656 55.757812 78.007812 56.4375 C 76.914062 55.925781 75.652344 55.585938 74.523438 55.550781 C 72.886719 55.484375 72.542969 56.878906 72.785156 58.207031 C 70.121094 58.511719 67.492188 59.703125 66.023438 62.085938 C 64.558594 64.464844 63.601562 67.1875 63.5 70.011719 C 63.464844 71.066406 63.566406 71.984375 63.839844 72.9375 C 62.644531 73.855469 61.65625 76.101562 61.382812 77.363281 C 61.175781 78.347656 61.484375 79.265625 61.757812 80.1875 C 61.996094 81.035156 62.167969 81.953125 62.472656 82.804688 C 62.066406 83.828125 61.585938 84.8125 61.210938 85.867188 C 60.699219 87.230469 60.769531 88.894531 62.234375 89.542969 C 62.371094 89.609375 62.542969 89.679688 62.714844 89.710938 C 62.578125 90.289062 62.40625 90.972656 62.304688 91.652344 C 61.519531 91.378906 60.734375 91.242188 60.222656 91.414062 C 58.753906 91.925781 59.0625 94.167969 59.128906 95.394531 C 59.265625 97.808594 59.605469 100.15625 59.605469 102.574219 C 58.992188 104.242188 58.070312 105.839844 57.523438 107.539062 C 56.535156 110.535156 58.34375 111.011719 60.496094 110.839844 C 60.769531 112.03125 61.484375 113.054688 62.339844 113.902344 C 61.996094 114.890625 61.859375 116.082031 61.996094 116.625 C 62.304688 117.816406 63.429688 118.804688 64.25 119.6875 C 65.34375 120.84375 65.921875 121.933594 66.433594 123.464844 C 67.046875 125.335938 67.289062 128.296875 68.6875 129.960938 C 68.414062 131.121094 68.550781 132.515625 68.925781 133.261719 C 69.234375 133.910156 70.496094 135.101562 71.179688 136.054688 C 71.078125 137.003906 71.109375 138.058594 71.078125 138.878906 C 71.007812 140.171875 71.042969 141.464844 71.078125 142.757812 C 71.109375 143.914062 70.941406 145.445312 71.28125 146.53125 C 71.453125 147.042969 72.136719 147.792969 72.785156 148.0625 C 72.953125 150.511719 73.5 154.359375 75.378906 155.34375 L 51.003906 212.0625 L 51.074219 217.914062 L 55.339844 215.464844 L 81.761719 158.441406 C 81.898438 158.984375 82.101562 159.5625 82.207031 160.039062 Z M 125.421875 127.035156 C 125.933594 127.785156 126.410156 128.535156 126.855469 129.316406 C 127.265625 130.03125 127.605469 130.78125 127.949219 131.527344 C 128.152344 131.96875 128.460938 132.378906 128.664062 132.820312 C 128.359375 133.332031 128.050781 133.808594 127.777344 134.316406 C 127.503906 134.863281 127.367188 135.371094 127.230469 135.917969 Z M 121.972656 115.164062 C 122.347656 115.742188 122.757812 116.589844 122.929688 116.863281 C 123.269531 117.40625 123.648438 118.019531 124.089844 118.53125 C 123.511719 118.734375 122.863281 119.109375 122.347656 119.515625 C 122.316406 118.734375 122.246094 117.953125 122.179688 117.167969 C 122.109375 116.589844 122.007812 116.011719 121.972656 115.433594 C 121.972656 115.332031 121.972656 115.230469 121.972656 115.164062 Z M 107.054688 38.539062 C 107.023438 38.539062 106.988281 38.539062 106.921875 38.472656 C 106.988281 38.507812 107.023438 38.539062 107.054688 38.539062 Z M 94.085938 45.3125 C 94.152344 44.835938 94.222656 44.359375 94.289062 43.882812 C 94.9375 44.222656 95.621094 44.765625 96.269531 44.972656 C 98.113281 45.617188 99.992188 45.890625 101.9375 45.921875 C 102.960938 45.921875 103.949219 45.71875 104.972656 45.515625 C 105.417969 45.414062 106.648438 44.867188 107.296875 44.800781 C 107.328125 45.175781 107.296875 45.617188 107.296875 46.027344 C 106.816406 46.195312 106.304688 46.535156 105.828125 46.671875 C 105.109375 46.910156 104.359375 47.183594 103.644531 47.320312 C 103.539062 49.53125 103.507812 51.742188 103.507812 53.988281 C 102.859375 54.054688 102.210938 54.191406 101.527344 54.191406 C 101.5625 53.613281 101.59375 53 101.59375 52.421875 C 101.628906 51.605469 101.5625 50.789062 101.59375 49.972656 C 101.59375 49.257812 101.765625 48.476562 101.765625 47.726562 C 99.511719 47.285156 97.054688 47.082031 94.972656 45.921875 C 94.664062 45.71875 94.359375 45.515625 94.085938 45.3125 Z M 79.917969 122.613281 C 79.714844 124.859375 79.714844 127.34375 79.097656 129.589844 C 78.28125 127.207031 78.28125 123.804688 78.039062 121.558594 C 77.9375 120.539062 78.175781 117.75 77.597656 116.933594 C 77.390625 116.695312 77.085938 116.488281 76.710938 116.351562 C 76.878906 115.058594 76.710938 113.53125 76.675781 112.441406 C 76.640625 111.214844 76.640625 108.800781 76.230469 107.269531 C 77.597656 106.484375 78.722656 105.296875 79.269531 103.765625 C 79.917969 105.023438 80.804688 106.179688 81.351562 107.40625 C 81.828125 108.460938 81.453125 110.125 82.070312 111.078125 C 82.375 111.523438 82.957031 111.792969 83.570312 111.964844 C 83.433594 113.222656 83.230469 114.6875 83.195312 115.230469 C 83.160156 116.320312 83.058594 117.613281 83.125 118.804688 C 82.273438 118.90625 81.351562 119.210938 80.976562 119.484375 C 79.953125 120.230469 80.019531 121.457031 79.917969 122.613281 Z M 79.917969 122.613281 " fill-opacity="1" fill-rule="nonzero"/></g></svg>