<svg xmlns="http://www.w3.org/2000/svg" xmlns:xlink="http://www.w3.org/1999/xlink" width="250" zoomAndPan="magnify" viewBox="0 0 187.5 262.500001" height="350" preserveAspectRatio="xMidYMid meet" version="1.0"><defs><clipPath id="8e7c18e5ba"><path d="M 33.753906 19 L 153.433594 19 L 153.433594 243.203125 L 33.753906 243.203125 Z M 33.753906 19 " clip-rule="nonzero"/></clipPath></defs><g clip-path="url(#8e7c18e5ba)"><path fill="#ff0000" d="M 151.9375 241.980469 C 149.121094 239.820312 146.300781 237.613281 143.484375 235.496094 C 142.542969 234.839844 142.167969 234.136719 142.167969 232.960938 C 142.214844 193.785156 142.214844 154.652344 142.214844 115.476562 C 142.214844 114.488281 141.980469 113.410156 141.601562 112.515625 C 137.375 102.652344 132.960938 92.925781 128.875 83.015625 C 126.335938 76.863281 121.96875 72.914062 116.050781 70.332031 C 115.015625 69.863281 114.265625 70.003906 113.511719 70.894531 C 111.398438 73.339844 109.425781 75.875 107.078125 78.035156 C 103.695312 81.183594 102.238281 84.753906 102.753906 89.449219 C 103.128906 93.019531 102.847656 96.683594 102.847656 100.300781 C 102.847656 100.726562 102.847656 101.148438 102.847656 101.804688 C 100.3125 100.632812 97.964844 99.644531 95.660156 98.515625 C 95.285156 98.328125 95.050781 97.578125 95.050781 97.109375 C 95.003906 91.753906 95.003906 86.445312 95.097656 81.089844 C 95.097656 80.382812 95.519531 79.539062 95.992188 78.976562 C 98.527344 76.0625 101.109375 73.246094 103.648438 70.378906 C 105.902344 67.84375 108.15625 65.304688 110.695312 62.441406 C 107.640625 62.441406 104.960938 62.441406 102.191406 62.441406 C 102.191406 59.902344 101.910156 57.460938 102.285156 55.113281 C 102.472656 53.9375 103.882812 52.996094 104.773438 51.964844 C 105.761719 50.789062 105.996094 49.429688 105.292969 48.113281 C 104.117188 45.953125 103.082031 43.835938 104.304688 41.207031 C 96.929688 40.503906 89.929688 40.316406 82.929688 41.347656 C 83.496094 44.542969 83.496094 44.542969 81.992188 47.265625 C 80.769531 49.570312 80.722656 50.929688 82.695312 52.667969 C 86.03125 55.535156 84.480469 59.011719 84.808594 62.488281 C 81.898438 62.488281 79.265625 62.488281 76.449219 62.488281 C 76.777344 62.957031 76.964844 63.238281 77.152344 63.472656 C 81.757812 68.59375 86.359375 73.714844 90.917969 78.882812 C 91.386719 79.445312 91.855469 80.242188 91.902344 80.949219 C 91.996094 86.351562 91.949219 91.753906 91.949219 97.15625 C 91.949219 97.578125 91.855469 98.234375 91.574219 98.375 C 89.273438 99.550781 86.925781 100.632812 84.433594 101.757812 C 84.433594 96.589844 84.339844 91.707031 84.480469 86.820312 C 84.527344 84.425781 84.105469 82.5 82.273438 80.667969 C 79.171875 77.613281 76.402344 74.183594 73.441406 70.988281 C 73.066406 70.566406 72.222656 70.097656 71.796875 70.238281 C 66.113281 72.164062 61.652344 75.6875 59.160156 81.183594 C 54.558594 91.375 50.234375 101.664062 45.867188 111.953125 C 45.257812 113.363281 44.929688 115.003906 44.882812 116.554688 C 44.835938 154.230469 44.789062 191.902344 44.929688 229.53125 C 44.929688 233.242188 44.175781 235.78125 40.933594 237.707031 C 38.539062 239.160156 36.472656 241.132812 33.84375 243.15625 C 41.96875 243.15625 49.53125 243.109375 57.09375 243.203125 C 58.691406 243.203125 59.585938 242.777344 60.148438 241.226562 C 62.636719 234.230469 65.550781 227.324219 67.664062 220.230469 C 74.757812 196.742188 78 172.550781 81.097656 148.3125 C 82.507812 137.273438 83.214844 126.1875 84.339844 115.097656 C 84.386719 114.675781 84.808594 114.019531 85.1875 113.925781 C 87.347656 113.363281 89.601562 112.890625 91.902344 112.375 C 91.902344 113.21875 91.902344 113.832031 91.902344 114.488281 C 91.949219 126.9375 90.304688 139.246094 88.613281 151.503906 C 86.5 166.539062 84.152344 181.523438 81.476562 196.460938 C 78.703125 211.867188 74.570312 226.949219 68.414062 241.417969 C 68.179688 241.980469 67.992188 242.542969 67.757812 243.109375 C 85.046875 243.109375 102.144531 243.109375 119.382812 243.109375 C 119.195312 242.636719 119.054688 242.261719 118.914062 241.886719 C 116.894531 236.484375 114.640625 231.128906 112.855469 225.632812 C 106.042969 204.398438 102.800781 182.460938 99.796875 160.476562 C 98.199219 148.96875 97.023438 137.367188 95.753906 125.808594 C 95.285156 121.394531 95.191406 116.929688 94.910156 112.28125 C 97.398438 112.84375 99.65625 113.265625 101.863281 113.832031 C 102.285156 113.972656 102.800781 114.722656 102.847656 115.242188 C 103.742188 124.355469 104.164062 133.5625 105.433594 142.628906 C 107.921875 160.855469 110.601562 179.03125 113.652344 197.164062 C 116.191406 212.386719 120.746094 227.136719 126.710938 241.371094 C 127.230469 242.636719 127.933594 243.109375 129.390625 243.109375 C 136.90625 243.011719 144.421875 243.058594 151.9375 243.058594 C 152.265625 243.058594 152.546875 243.011719 153.160156 242.964844 C 152.597656 242.542969 152.265625 242.261719 151.9375 241.980469 Z M 56.625 145.351562 C 56.484375 145.351562 56.390625 145.351562 56.25 145.351562 C 56.25 141.03125 56.34375 136.707031 56.203125 132.339844 C 56.15625 130.320312 56.671875 128.582031 57.660156 126.84375 C 62.871094 117.636719 67.992188 108.335938 73.113281 99.082031 C 73.628906 98.140625 74.195312 97.203125 74.757812 96.214844 C 77.058594 97.296875 79.265625 98.375 81.617188 99.503906 C 73.253906 114.816406 64.941406 130.085938 56.625 145.351562 Z M 130.609375 145.398438 C 122.203125 130.085938 113.746094 114.816406 105.292969 99.363281 C 107.6875 98.234375 109.894531 97.15625 112.195312 96.074219 C 114.453125 100.113281 116.660156 104.105469 118.914062 108.101562 C 122.71875 114.910156 126.523438 121.722656 130.28125 128.535156 C 130.609375 129.097656 130.941406 129.804688 130.941406 130.460938 C 130.988281 135.394531 130.988281 140.324219 130.609375 145.398438 Z M 76.683594 25.09375 C 77.480469 24.015625 79.171875 23.777344 80.207031 24.625 C 81.238281 25.46875 81.429688 26.972656 80.582031 28.007812 C 80.347656 28.289062 79.972656 28.476562 79.644531 28.710938 C 83.214844 32.84375 89.507812 31.8125 91.292969 27.019531 C 91.480469 26.550781 91.011719 25.707031 90.636719 25.140625 C 89.507812 23.402344 89.742188 21.335938 91.246094 20.019531 C 92.65625 18.800781 94.769531 18.894531 96.226562 20.257812 C 97.632812 21.617188 97.871094 23.921875 96.414062 25.328125 C 95.566406 26.175781 95.660156 26.785156 96.226562 27.679688 C 98.714844 31.90625 103.742188 32.46875 107.265625 28.898438 C 106.984375 28.523438 106.605469 28.148438 106.371094 27.726562 C 105.667969 26.503906 106.089844 25.09375 107.21875 24.4375 C 108.34375 23.777344 109.847656 24.15625 110.601562 25.1875 C 111.351562 26.316406 111.257812 28.054688 110.035156 28.476562 C 108.296875 29.132812 108.15625 30.542969 107.78125 31.90625 C 106.605469 36.132812 106.605469 35.898438 102.144531 35.804688 C 95.378906 35.664062 88.613281 35.851562 81.851562 35.992188 C 80.675781 36.039062 80.253906 35.757812 80.019531 34.628906 C 79.832031 33.503906 79.359375 32.421875 79.125 31.34375 C 78.84375 30.121094 78.5625 29.039062 77.152344 28.476562 C 76.027344 27.960938 75.933594 26.082031 76.683594 25.09375 Z M 76.683594 25.09375 " fill-opacity="1" fill-rule="nonzero"/></g></svg>