<svg xmlns="http://www.w3.org/2000/svg" xmlns:xlink="http://www.w3.org/1999/xlink" width="250" zoomAndPan="magnify" viewBox="0 0 187.5 262.500001" height="350" preserveAspectRatio="xMidYMid meet" version="1.0"><defs><clipPath id="d9a049ac87"><path d="M 33.753906 19 L 153.433594 19 L 153.433594 243.203125 L 33.753906 243.203125 Z M 33.753906 19 " clip-rule="nonzero"/></clipPath></defs><g clip-path="url(#d9a049ac87)"><path fill="#000000" d="M 152.121094 241.980469 C 149.300781 239.820312 146.476562 237.613281 143.652344 235.496094 C 142.714844 234.839844 142.335938 234.136719 142.335938 232.960938 C 142.382812 193.785156 142.382812 154.652344 142.382812 115.476562 C 142.382812 114.488281 142.148438 113.410156 141.773438 112.515625 C 137.539062 102.652344 133.117188 92.925781 129.023438 83.015625 C 126.480469 76.863281 122.105469 72.914062 116.175781 70.332031 C 115.140625 69.863281 114.390625 70.003906 113.636719 70.894531 C 111.519531 73.339844 109.542969 75.875 107.191406 78.035156 C 103.804688 81.183594 102.34375 84.753906 102.863281 89.449219 C 103.238281 93.019531 102.957031 96.683594 102.957031 100.300781 C 102.957031 100.726562 102.957031 101.148438 102.957031 101.804688 C 100.417969 100.632812 98.0625 99.644531 95.757812 98.515625 C 95.382812 98.328125 95.148438 97.578125 95.148438 97.109375 C 95.101562 91.753906 95.101562 86.445312 95.195312 81.089844 C 95.195312 80.382812 95.617188 79.539062 96.085938 78.976562 C 98.628906 76.0625 101.214844 73.246094 103.757812 70.378906 C 106.015625 67.84375 108.273438 65.304688 110.8125 62.441406 C 107.757812 62.441406 105.074219 62.441406 102.296875 62.441406 C 102.296875 59.902344 102.015625 57.460938 102.390625 55.113281 C 102.582031 53.9375 103.992188 52.996094 104.886719 51.964844 C 105.875 50.789062 106.109375 49.429688 105.402344 48.113281 C 104.226562 45.953125 103.191406 43.835938 104.414062 41.207031 C 97.027344 40.503906 90.019531 40.316406 83.007812 41.347656 C 83.574219 44.542969 83.574219 44.542969 82.066406 47.265625 C 80.84375 49.570312 80.796875 50.929688 82.773438 52.667969 C 86.113281 55.535156 84.5625 59.011719 84.890625 62.488281 C 81.972656 62.488281 79.339844 62.488281 76.515625 62.488281 C 76.84375 62.957031 77.03125 63.238281 77.222656 63.472656 C 81.832031 68.59375 86.441406 73.714844 91.007812 78.882812 C 91.476562 79.445312 91.949219 80.242188 91.996094 80.949219 C 92.089844 86.351562 92.042969 91.753906 92.042969 97.15625 C 92.042969 97.578125 91.949219 98.234375 91.664062 98.375 C 89.359375 99.550781 87.007812 100.632812 84.515625 101.757812 C 84.515625 96.589844 84.417969 91.707031 84.5625 86.820312 C 84.609375 84.425781 84.183594 82.5 82.347656 80.667969 C 79.246094 77.613281 76.46875 74.183594 73.503906 70.988281 C 73.128906 70.566406 72.28125 70.097656 71.859375 70.238281 C 66.164062 72.164062 61.695312 75.6875 59.203125 81.183594 C 54.589844 91.375 50.261719 101.664062 45.886719 111.953125 C 45.273438 113.363281 44.945312 115.003906 44.898438 116.554688 C 44.851562 154.230469 44.804688 191.902344 44.945312 229.53125 C 44.945312 233.242188 44.191406 235.78125 40.945312 237.707031 C 38.546875 239.160156 36.476562 241.132812 33.84375 243.15625 C 41.980469 243.15625 49.554688 243.109375 57.132812 243.203125 C 58.730469 243.203125 59.625 242.777344 60.1875 241.226562 C 62.683594 234.230469 65.601562 227.324219 67.71875 220.230469 C 74.820312 196.742188 78.066406 172.550781 81.171875 148.3125 C 82.585938 137.273438 83.289062 126.1875 84.417969 115.097656 C 84.464844 114.675781 84.890625 114.019531 85.265625 113.925781 C 87.429688 113.363281 89.6875 112.890625 91.996094 112.375 C 91.996094 113.21875 91.996094 113.832031 91.996094 114.488281 C 92.042969 126.9375 90.394531 139.246094 88.699219 151.503906 C 86.582031 166.539062 84.230469 181.523438 81.550781 196.460938 C 78.773438 211.867188 74.632812 226.949219 68.46875 241.417969 C 68.234375 241.980469 68.046875 242.542969 67.8125 243.109375 C 85.125 243.109375 102.25 243.109375 119.519531 243.109375 C 119.328125 242.636719 119.1875 242.261719 119.046875 241.886719 C 117.023438 236.484375 114.765625 231.128906 112.976562 225.632812 C 106.15625 204.398438 102.910156 182.460938 99.898438 160.476562 C 98.300781 148.96875 97.121094 137.367188 95.851562 125.808594 C 95.382812 121.394531 95.289062 116.929688 95.003906 112.28125 C 97.5 112.84375 99.757812 113.265625 101.96875 113.832031 C 102.390625 113.972656 102.910156 114.722656 102.957031 115.242188 C 103.851562 124.355469 104.273438 133.5625 105.542969 142.628906 C 108.039062 160.855469 110.71875 179.03125 113.777344 197.164062 C 116.320312 212.386719 120.882812 227.136719 126.859375 241.371094 C 127.375 242.636719 128.082031 243.109375 129.539062 243.109375 C 137.066406 243.011719 144.59375 243.058594 152.121094 243.058594 C 152.453125 243.058594 152.734375 243.011719 153.347656 242.964844 C 152.78125 242.542969 152.453125 242.261719 152.121094 241.980469 Z M 56.660156 145.351562 C 56.519531 145.351562 56.425781 145.351562 56.285156 145.351562 C 56.285156 141.03125 56.378906 136.707031 56.238281 132.339844 C 56.191406 130.320312 56.707031 128.582031 57.695312 126.84375 C 62.917969 117.636719 68.046875 108.335938 73.175781 99.082031 C 73.691406 98.140625 74.257812 97.203125 74.820312 96.214844 C 77.128906 97.296875 79.339844 98.375 81.691406 99.503906 C 73.316406 114.816406 64.988281 130.085938 56.660156 145.351562 Z M 130.761719 145.398438 C 122.339844 130.085938 113.871094 114.816406 105.402344 99.363281 C 107.804688 98.234375 110.015625 97.15625 112.320312 96.074219 C 114.578125 100.113281 116.789062 104.105469 119.046875 108.101562 C 122.859375 114.910156 126.667969 121.722656 130.433594 128.535156 C 130.761719 129.097656 131.09375 129.804688 131.09375 130.460938 C 131.140625 135.394531 131.140625 140.324219 130.761719 145.398438 Z M 76.75 25.09375 C 77.550781 24.015625 79.246094 23.777344 80.28125 24.625 C 81.3125 25.46875 81.503906 26.972656 80.65625 28.007812 C 80.421875 28.289062 80.042969 28.476562 79.714844 28.710938 C 83.289062 32.84375 89.59375 31.8125 91.382812 27.019531 C 91.570312 26.550781 91.101562 25.707031 90.722656 25.140625 C 89.59375 23.402344 89.832031 21.335938 91.335938 20.019531 C 92.746094 18.800781 94.863281 18.894531 96.324219 20.257812 C 97.734375 21.617188 97.96875 23.921875 96.511719 25.328125 C 95.664062 26.175781 95.757812 26.785156 96.324219 27.679688 C 98.816406 31.90625 103.851562 32.46875 107.378906 28.898438 C 107.097656 28.523438 106.722656 28.148438 106.484375 27.726562 C 105.78125 26.503906 106.203125 25.09375 107.332031 24.4375 C 108.460938 23.777344 109.96875 24.15625 110.71875 25.1875 C 111.472656 26.316406 111.378906 28.054688 110.15625 28.476562 C 108.414062 29.132812 108.273438 30.542969 107.898438 31.90625 C 106.722656 36.132812 106.722656 35.898438 102.25 35.804688 C 95.476562 35.664062 88.699219 35.851562 81.925781 35.992188 C 80.75 36.039062 80.328125 35.757812 80.089844 34.628906 C 79.902344 33.503906 79.433594 32.421875 79.195312 31.34375 C 78.914062 30.121094 78.632812 29.039062 77.222656 28.476562 C 76.09375 27.960938 75.996094 26.082031 76.75 25.09375 Z M 76.75 25.09375 " fill-opacity="1" fill-rule="nonzero"/></g></svg>