<svg xmlns="http://www.w3.org/2000/svg" xmlns:xlink="http://www.w3.org/1999/xlink" width="250" zoomAndPan="magnify" viewBox="0 0 187.5 262.500001" height="350" preserveAspectRatio="xMidYMid meet" version="1.0"><defs><clipPath id="c1f3111d4e"><path d="M 28.144531 18.800781 L 159 18.800781 L 159 243 L 28.144531 243 Z M 28.144531 18.800781 " clip-rule="nonzero"/></clipPath></defs><g clip-path="url(#c1f3111d4e)"><path fill="#ff0000" d="M 158.847656 240.890625 C 158.304688 240.933594 157.941406 240.980469 157.578125 240.980469 C 141.714844 240.980469 125.847656 240.980469 109.980469 241.027344 C 109.027344 241.027344 108.621094 240.753906 108.300781 239.847656 C 105.21875 230.960938 103.042969 221.847656 101.683594 212.554688 C 101.367188 210.378906 100.957031 208.203125 100.914062 206.027344 C 100.867188 204.304688 100.957031 202.492188 101.457031 200.859375 C 103.722656 193.46875 104.765625 185.898438 104.902344 178.191406 C 105.128906 168.039062 106.488281 158.019531 108.210938 148.046875 C 108.4375 146.59375 108.710938 145.191406 108.710938 143.695312 C 107.9375 146.640625 107.03125 149.585938 106.398438 152.578125 C 105.082031 158.746094 103.859375 164.910156 102.726562 171.121094 C 102.410156 172.84375 102.363281 174.65625 102.453125 176.378906 C 103 186.851562 100.640625 196.871094 97.695312 206.796875 C 95.835938 213.054688 94.113281 219.355469 92.390625 225.703125 C 92.164062 226.5625 92.207031 227.5625 92.164062 228.46875 C 92.074219 230.554688 92.027344 232.683594 91.9375 234.769531 C 91.800781 238.667969 89.535156 240.980469 86.226562 242.613281 C 85.089844 243.15625 84.5 242.792969 84.046875 241.75 C 82.960938 239.304688 83.414062 236.855469 84.046875 234.40625 C 84.230469 233.816406 84.410156 233.183594 84.730469 232.640625 C 87.265625 228.46875 87.949219 223.707031 88.988281 219.039062 C 90.484375 212.285156 90.710938 205.394531 91.300781 198.503906 C 91.800781 192.429688 92.570312 186.351562 93.25 180.277344 C 93.296875 179.914062 93.296875 179.554688 93.296875 179.144531 C 91.710938 184.402344 90.351562 189.707031 90.125 195.148438 C 89.671875 205.347656 88.945312 215.503906 85.363281 225.160156 C 83.59375 229.964844 81.417969 234.632812 79.46875 239.347656 C 78.925781 240.617188 77.972656 241.027344 76.570312 241.027344 C 60.882812 240.980469 45.242188 241.027344 29.558594 241.027344 C 29.238281 241.027344 28.878906 241.027344 28.152344 241.027344 C 28.742188 240.617188 29.011719 240.4375 29.332031 240.253906 C 36.039062 236.445312 40.664062 230.734375 44.246094 224.070312 C 49.097656 215.003906 52.40625 205.394531 55.398438 195.601562 C 60.519531 178.738281 64.328125 161.511719 68.363281 144.328125 C 70.539062 134.988281 72.898438 125.652344 75.433594 116.359375 C 76.75 111.597656 79.242188 107.472656 83.234375 104.390625 C 83.640625 104.074219 83.867188 103.347656 83.867188 102.757812 C 84.046875 98.222656 82.597656 93.964844 81.191406 89.746094 C 80.511719 87.707031 79.742188 85.757812 78.746094 83.71875 C 78.425781 85.847656 78.109375 87.980469 77.746094 90.109375 C 76.75 95.59375 76.070312 101.171875 74.664062 106.519531 C 73.441406 111.054688 71.445312 115.40625 69.632812 119.804688 C 67.003906 126.015625 64.191406 132.132812 61.472656 138.300781 C 61.246094 138.796875 61.019531 139.296875 60.703125 139.703125 C 58.753906 142.109375 56.710938 144.511719 54.445312 147.230469 C 54.671875 146.140625 54.761719 145.371094 54.945312 144.644531 C 55.171875 143.875 55.488281 143.148438 55.667969 142.335938 C 52.949219 144.328125 52.722656 147.957031 51 150.539062 C 50.820312 150.449219 50.636719 150.359375 50.457031 150.265625 C 50.546875 149.679688 50.636719 149.042969 50.726562 148.273438 C 49.820312 149.496094 49.050781 150.585938 48.28125 151.671875 C 48.097656 151.582031 47.964844 151.492188 47.78125 151.355469 C 47.964844 150.722656 48.144531 150.132812 48.324219 149.453125 C 47.828125 149.8125 47.328125 150.132812 46.828125 150.492188 C 46.695312 150.402344 46.558594 150.3125 46.421875 150.265625 C 47.644531 147.140625 48.824219 144.011719 50.09375 140.929688 C 50.273438 140.519531 50.773438 140.203125 51.183594 139.976562 C 53.085938 138.890625 55.082031 137.9375 56.9375 136.757812 C 57.574219 136.351562 58.117188 135.578125 58.34375 134.855469 C 60.25 128.28125 62.105469 121.707031 63.964844 115.132812 C 64.464844 113.320312 64.964844 111.460938 65.460938 109.601562 C 65.597656 109.058594 65.734375 108.378906 66.097656 107.972656 C 69.269531 104.527344 68.410156 100.082031 68.953125 96.046875 C 69.90625 89.339844 70.675781 82.585938 71.761719 75.875 C 72.398438 72.066406 74.257812 70.570312 78.019531 70.707031 C 81.964844 70.84375 85.316406 69.753906 88.175781 67.035156 C 91.300781 70.707031 96.605469 70.660156 98.644531 66.898438 C 99.054688 67.214844 99.417969 67.488281 99.78125 67.804688 C 102.183594 69.753906 104.902344 70.753906 108.03125 70.660156 C 112.335938 70.527344 114.375 71.929688 115.058594 76.238281 C 116.28125 83.808594 117.234375 91.425781 118.230469 99.039062 C 118.457031 100.671875 118.457031 102.351562 118.59375 104.027344 C 118.636719 104.433594 118.683594 104.980469 118.957031 105.25 C 121.496094 108.105469 121.992188 111.777344 122.945312 115.222656 C 124.847656 121.84375 126.617188 128.507812 128.566406 135.125 C 128.746094 135.804688 129.425781 136.53125 130.0625 136.9375 C 131.832031 138.027344 133.78125 138.933594 135.59375 139.976562 C 136.183594 140.339844 136.816406 140.882812 137.042969 141.519531 C 138.132812 144.285156 139.128906 147.09375 140.125 149.90625 C 140.171875 150.039062 140.125 150.265625 140.082031 150.765625 C 139.445312 150.3125 139.039062 149.996094 138.628906 149.679688 C 138.765625 150.222656 138.855469 150.765625 139.039062 151.628906 C 137.179688 150.902344 137.089844 149.089844 136 147.910156 C 136.136719 148.816406 136.226562 149.585938 136.316406 150.402344 C 136.183594 150.449219 136 150.539062 135.863281 150.585938 C 135.59375 150.085938 135.230469 149.632812 135.003906 149.132812 C 134.1875 147.320312 133.460938 145.460938 132.601562 143.648438 C 132.375 143.105469 131.832031 142.695312 131.195312 142.378906 C 131.605469 143.875 131.964844 145.324219 132.375 146.820312 C 132.238281 146.867188 132.101562 146.957031 131.964844 147.003906 C 131.785156 146.867188 131.605469 146.777344 131.46875 146.640625 C 129.972656 144.738281 128.429688 142.832031 126.933594 140.882812 C 126.390625 140.203125 125.800781 139.476562 125.484375 138.707031 C 121.402344 129.460938 117.140625 120.257812 113.46875 110.871094 C 111.792969 106.566406 111.15625 101.804688 110.296875 97.226562 C 109.433594 92.738281 108.847656 88.160156 108.121094 83.582031 C 107.984375 83.671875 107.804688 83.71875 107.804688 83.808594 C 106.214844 88.796875 104.585938 93.738281 103.132812 98.722656 C 102.726562 100.082031 102.816406 101.625 102.816406 103.121094 C 102.816406 103.574219 103.089844 104.207031 103.453125 104.433594 C 107.03125 106.929688 109.074219 110.464844 110.613281 114.410156 C 113.695312 122.207031 115.464844 130.367188 117.324219 138.527344 C 121.628906 157.429688 125.753906 176.425781 131.421875 194.964844 C 134.277344 204.351562 137.496094 213.644531 141.984375 222.4375 C 145.203125 228.738281 149.058594 234.542969 154.996094 238.621094 C 156.308594 239.394531 157.488281 240.074219 158.847656 240.890625 Z M 103.722656 43.28125 C 105.039062 39.925781 104.132812 36.84375 101.230469 34.710938 C 96.789062 31.492188 91.300781 31.265625 86.453125 34.167969 C 82.960938 36.253906 81.738281 40.0625 83.367188 43.824219 C 83.730469 44.640625 84.003906 45.457031 84.230469 46.316406 C 84.320312 46.632812 84.320312 47.179688 84.09375 47.359375 C 82.597656 48.675781 83.1875 50.261719 83.59375 51.710938 C 83.867188 52.84375 84.546875 53.660156 85.863281 53.117188 C 86.453125 54.476562 86.8125 55.972656 87.675781 57.015625 C 89.125 58.785156 89.351562 60.6875 89.125 62.773438 C 89.035156 63.636719 88.808594 64.496094 88.808594 65.3125 C 88.808594 65.765625 88.945312 66.265625 89.214844 66.625 C 90.9375 69.390625 95.066406 69.347656 97.058594 67.625 C 97.695312 67.082031 98.417969 66.265625 98.417969 65.539062 C 98.511719 63.726562 98.148438 61.914062 98.058594 60.054688 C 98.011719 59.554688 98.238281 59.011719 98.464844 58.558594 C 99.234375 56.972656 100.050781 55.476562 100.914062 53.933594 C 101.09375 53.617188 101.320312 53.253906 101.59375 53.164062 C 103.359375 52.710938 104.585938 49.082031 103.226562 47.8125 C 102.316406 46.953125 102.5 46.273438 102.816406 45.410156 C 103.089844 44.683594 103.453125 44.003906 103.722656 43.28125 Z M 83.867188 34.9375 C 84.09375 34.621094 84.183594 34.078125 84.09375 33.714844 C 83.640625 31.71875 83.097656 29.726562 82.6875 27.730469 C 82.460938 26.644531 82.417969 25.507812 82.28125 24.421875 C 84.410156 26.597656 86.226562 28.820312 88.082031 30.996094 C 88.492188 31.449219 89.082031 31.945312 89.625 31.992188 C 90.621094 32.039062 91.03125 31.222656 91.257812 30.269531 C 91.890625 27.683594 92.570312 25.054688 93.25 22.246094 C 93.433594 22.925781 93.570312 23.378906 93.703125 23.832031 C 94.339844 26.144531 94.882812 28.457031 95.5625 30.769531 C 95.972656 32.171875 97.058594 32.355469 98.101562 31.265625 C 98.554688 30.8125 98.964844 30.316406 99.371094 29.859375 C 101.046875 28.003906 102.726562 26.144531 104.675781 24.058594 C 104.492188 25.375 104.449219 26.28125 104.222656 27.1875 C 103.8125 29 103.359375 30.769531 102.816406 32.582031 C 102.183594 34.710938 102.316406 35.074219 104.402344 36.296875 C 106.398438 33.441406 108.394531 30.585938 110.386719 27.683594 C 109.796875 27.683594 109.34375 27.910156 108.9375 28.046875 C 106.761719 28.863281 105.671875 28.183594 105.535156 25.871094 C 105.492188 24.691406 105.535156 23.46875 105.535156 22.109375 C 103.269531 23.96875 101.230469 26.1875 98.101562 25.328125 C 95.019531 24.464844 94.476562 21.382812 93.207031 18.800781 C 92.660156 20.023438 92.253906 21.066406 91.753906 22.0625 C 89.941406 25.78125 87.175781 26.507812 83.730469 24.105469 C 82.914062 23.515625 82.191406 22.878906 81.285156 22.109375 C 81.285156 23.46875 81.328125 24.648438 81.285156 25.78125 C 81.191406 28.003906 79.921875 28.820312 77.839844 28.003906 C 77.339844 27.820312 76.886719 27.59375 76.433594 27.367188 C 76.386719 27.457031 76.296875 27.503906 76.25 27.59375 C 78.199219 30.585938 80.148438 33.578125 82.144531 36.660156 C 82.914062 36.027344 83.460938 35.527344 83.867188 34.9375 Z M 100.820312 221.894531 C 100.460938 217.453125 99.914062 213.007812 99.460938 208.566406 C 99.28125 208.566406 99.097656 208.566406 98.917969 208.613281 C 97.875 211.785156 96.789062 215.003906 95.835938 218.175781 C 95.652344 218.8125 95.699219 219.539062 95.835938 220.21875 C 96.742188 224.207031 96.515625 228.195312 96.152344 232.183594 C 95.746094 236.402344 96.5625 240.074219 100.59375 242.339844 C 102.089844 243.203125 102.363281 243.203125 103.226562 241.707031 C 103.542969 241.160156 103.8125 240.570312 103.949219 239.984375 C 104.765625 237.171875 104.449219 234.453125 103.226562 231.867188 C 101.820312 228.648438 101.09375 225.339844 100.820312 221.894531 Z M 100.820312 221.894531 " fill-opacity="1" fill-rule="nonzero"/></g></svg>