<svg xmlns="http://www.w3.org/2000/svg" xmlns:xlink="http://www.w3.org/1999/xlink" width="250" zoomAndPan="magnify" viewBox="0 0 187.5 262.500001" height="350" preserveAspectRatio="xMidYMid meet" version="1.0"><defs><clipPath id="dcb756c027"><path d="M 28.144531 18.800781 L 159.042969 18.800781 L 159.042969 243 L 28.144531 243 Z M 28.144531 18.800781 " clip-rule="nonzero"/></clipPath></defs><g clip-path="url(#dcb756c027)"><path fill="#000000" d="M 159.035156 240.890625 C 158.492188 240.933594 158.128906 240.980469 157.765625 240.980469 C 141.875 240.980469 125.984375 240.980469 110.097656 241.027344 C 109.144531 241.027344 108.734375 240.753906 108.417969 239.847656 C 105.328125 230.960938 103.152344 221.847656 101.789062 212.554688 C 101.472656 210.378906 101.0625 208.203125 101.015625 206.027344 C 100.972656 204.304688 101.0625 202.492188 101.5625 200.859375 C 103.832031 193.46875 104.875 185.898438 105.011719 178.191406 C 105.238281 168.039062 106.601562 158.019531 108.324219 148.046875 C 108.554688 146.59375 108.824219 145.191406 108.824219 143.695312 C 108.054688 146.640625 107.144531 149.585938 106.511719 152.578125 C 105.195312 158.746094 103.96875 164.910156 102.832031 171.121094 C 102.515625 172.84375 102.46875 174.65625 102.558594 176.378906 C 103.105469 186.851562 100.746094 196.871094 97.792969 206.796875 C 95.933594 213.054688 94.207031 219.355469 92.480469 225.703125 C 92.253906 226.5625 92.300781 227.5625 92.253906 228.46875 C 92.164062 230.554688 92.117188 232.683594 92.027344 234.769531 C 91.890625 238.667969 89.621094 240.980469 86.308594 242.613281 C 85.171875 243.15625 84.582031 242.792969 84.128906 241.75 C 83.039062 239.304688 83.492188 236.855469 84.128906 234.40625 C 84.308594 233.816406 84.492188 233.183594 84.808594 232.640625 C 87.351562 228.46875 88.03125 223.707031 89.078125 219.039062 C 90.574219 212.285156 90.800781 205.394531 91.390625 198.503906 C 91.890625 192.429688 92.664062 186.351562 93.34375 180.277344 C 93.390625 179.914062 93.390625 179.554688 93.390625 179.144531 C 91.800781 184.402344 90.4375 189.707031 90.210938 195.148438 C 89.757812 205.347656 89.03125 215.503906 85.445312 225.160156 C 83.675781 229.964844 81.496094 234.632812 79.542969 239.347656 C 79 240.617188 78.046875 241.027344 76.636719 241.027344 C 60.929688 240.980469 45.265625 241.027344 29.558594 241.027344 C 29.242188 241.027344 28.878906 241.027344 28.152344 241.027344 C 28.742188 240.617188 29.015625 240.4375 29.332031 240.253906 C 36.050781 236.445312 40.683594 230.734375 44.269531 224.070312 C 49.125 215.003906 52.441406 205.394531 55.4375 195.601562 C 60.566406 178.738281 64.378906 161.511719 68.421875 144.328125 C 70.601562 134.988281 72.960938 125.652344 75.503906 116.359375 C 76.820312 111.597656 79.316406 107.472656 83.3125 104.390625 C 83.71875 104.074219 83.945312 103.347656 83.945312 102.757812 C 84.128906 98.222656 82.675781 93.964844 81.269531 89.746094 C 80.585938 87.707031 79.816406 85.757812 78.816406 83.71875 C 78.5 85.847656 78.179688 87.980469 77.816406 90.109375 C 76.820312 95.59375 76.136719 101.171875 74.730469 106.519531 C 73.503906 111.054688 71.507812 115.40625 69.691406 119.804688 C 67.058594 126.015625 64.242188 132.132812 61.519531 138.300781 C 61.292969 138.796875 61.066406 139.296875 60.75 139.703125 C 58.796875 142.109375 56.753906 144.511719 54.484375 147.230469 C 54.710938 146.140625 54.800781 145.371094 54.984375 144.644531 C 55.210938 143.875 55.527344 143.148438 55.710938 142.335938 C 52.984375 144.328125 52.757812 147.957031 51.03125 150.539062 C 50.851562 150.449219 50.667969 150.359375 50.488281 150.265625 C 50.578125 149.679688 50.667969 149.042969 50.761719 148.273438 C 49.851562 149.496094 49.082031 150.585938 48.308594 151.671875 C 48.128906 151.582031 47.992188 151.492188 47.808594 151.355469 C 47.992188 150.722656 48.171875 150.132812 48.355469 149.453125 C 47.855469 149.8125 47.355469 150.132812 46.855469 150.492188 C 46.71875 150.402344 46.585938 150.3125 46.449219 150.265625 C 47.671875 147.140625 48.855469 144.011719 50.125 140.929688 C 50.308594 140.519531 50.804688 140.203125 51.214844 139.976562 C 53.121094 138.890625 55.117188 137.9375 56.980469 136.757812 C 57.617188 136.351562 58.160156 135.578125 58.386719 134.855469 C 60.292969 128.28125 62.15625 121.707031 64.015625 115.132812 C 64.515625 113.320312 65.015625 111.460938 65.515625 109.601562 C 65.652344 109.058594 65.789062 108.378906 66.152344 107.972656 C 69.328125 104.527344 68.464844 100.082031 69.011719 96.046875 C 69.964844 89.339844 70.734375 82.585938 71.824219 75.875 C 72.460938 72.066406 74.324219 70.570312 78.089844 70.707031 C 82.039062 70.84375 85.398438 69.753906 88.261719 67.035156 C 91.390625 70.707031 96.703125 70.660156 98.746094 66.898438 C 99.15625 67.214844 99.519531 67.488281 99.882812 67.804688 C 102.289062 69.753906 105.011719 70.753906 108.144531 70.660156 C 112.457031 70.527344 114.5 71.929688 115.179688 76.238281 C 116.40625 83.808594 117.359375 91.425781 118.359375 99.039062 C 118.585938 100.671875 118.585938 102.351562 118.722656 104.027344 C 118.769531 104.433594 118.8125 104.980469 119.085938 105.25 C 121.628906 108.105469 122.128906 111.777344 123.082031 115.222656 C 124.988281 121.84375 126.757812 128.507812 128.710938 135.125 C 128.890625 135.804688 129.574219 136.53125 130.207031 136.9375 C 131.980469 138.027344 133.929688 138.933594 135.746094 139.976562 C 136.335938 140.339844 136.972656 140.882812 137.199219 141.519531 C 138.289062 144.285156 139.289062 147.09375 140.285156 149.90625 C 140.332031 150.039062 140.285156 150.265625 140.242188 150.765625 C 139.605469 150.3125 139.195312 149.996094 138.789062 149.679688 C 138.925781 150.222656 139.015625 150.765625 139.195312 151.628906 C 137.335938 150.902344 137.246094 149.089844 136.15625 147.910156 C 136.292969 148.816406 136.382812 149.585938 136.472656 150.402344 C 136.335938 150.449219 136.15625 150.539062 136.019531 150.585938 C 135.746094 150.085938 135.382812 149.632812 135.15625 149.132812 C 134.339844 147.320312 133.613281 145.460938 132.75 143.648438 C 132.523438 143.105469 131.980469 142.695312 131.34375 142.378906 C 131.75 143.875 132.113281 145.324219 132.523438 146.820312 C 132.386719 146.867188 132.25 146.957031 132.113281 147.003906 C 131.933594 146.867188 131.75 146.777344 131.617188 146.640625 C 130.117188 144.738281 128.574219 142.832031 127.074219 140.882812 C 126.53125 140.203125 125.941406 139.476562 125.621094 138.707031 C 121.535156 129.460938 117.269531 120.257812 113.59375 110.871094 C 111.914062 106.566406 111.277344 101.804688 110.414062 97.226562 C 109.550781 92.738281 108.960938 88.160156 108.234375 83.582031 C 108.097656 83.671875 107.917969 83.71875 107.917969 83.808594 C 106.328125 88.796875 104.695312 93.738281 103.242188 98.722656 C 102.832031 100.082031 102.921875 101.625 102.921875 103.121094 C 102.921875 103.574219 103.195312 104.207031 103.558594 104.433594 C 107.144531 106.929688 109.1875 110.464844 110.730469 114.410156 C 113.820312 122.207031 115.589844 130.367188 117.449219 138.527344 C 121.765625 157.429688 125.894531 176.425781 131.570312 194.964844 C 134.429688 204.351562 137.652344 213.644531 142.148438 222.4375 C 145.371094 228.738281 149.230469 234.542969 155.175781 238.621094 C 156.492188 239.394531 157.675781 240.074219 159.035156 240.890625 Z M 103.832031 43.28125 C 105.148438 39.925781 104.238281 36.84375 101.335938 34.710938 C 96.886719 31.492188 91.390625 31.265625 86.535156 34.167969 C 83.039062 36.253906 81.8125 40.0625 83.449219 43.824219 C 83.8125 44.640625 84.082031 45.457031 84.308594 46.316406 C 84.402344 46.632812 84.402344 47.179688 84.175781 47.359375 C 82.675781 48.675781 83.265625 50.261719 83.675781 51.710938 C 83.945312 52.84375 84.628906 53.660156 85.945312 53.117188 C 86.535156 54.476562 86.898438 55.972656 87.761719 57.015625 C 89.214844 58.785156 89.441406 60.6875 89.214844 62.773438 C 89.121094 63.636719 88.894531 64.496094 88.894531 65.3125 C 88.894531 65.765625 89.03125 66.265625 89.304688 66.625 C 91.027344 69.390625 95.160156 69.347656 97.15625 67.625 C 97.792969 67.082031 98.519531 66.265625 98.519531 65.539062 C 98.609375 63.726562 98.246094 61.914062 98.15625 60.054688 C 98.109375 59.554688 98.339844 59.011719 98.566406 58.558594 C 99.335938 56.972656 100.152344 55.476562 101.015625 53.933594 C 101.199219 53.617188 101.425781 53.253906 101.699219 53.164062 C 103.46875 52.710938 104.695312 49.082031 103.332031 47.8125 C 102.425781 46.953125 102.605469 46.273438 102.921875 45.410156 C 103.195312 44.683594 103.558594 44.003906 103.832031 43.28125 Z M 83.945312 34.9375 C 84.175781 34.621094 84.265625 34.078125 84.175781 33.714844 C 83.71875 31.71875 83.175781 29.726562 82.765625 27.730469 C 82.539062 26.644531 82.496094 25.507812 82.359375 24.421875 C 84.492188 26.597656 86.308594 28.820312 88.167969 30.996094 C 88.578125 31.449219 89.167969 31.945312 89.710938 31.992188 C 90.710938 32.039062 91.121094 31.222656 91.347656 30.269531 C 91.984375 27.683594 92.664062 25.054688 93.34375 22.246094 C 93.527344 22.925781 93.664062 23.378906 93.796875 23.832031 C 94.433594 26.144531 94.980469 28.457031 95.660156 30.769531 C 96.070312 32.171875 97.15625 32.355469 98.203125 31.265625 C 98.65625 30.8125 99.066406 30.316406 99.472656 29.859375 C 101.152344 28.003906 102.832031 26.144531 104.785156 24.058594 C 104.601562 25.375 104.558594 26.28125 104.332031 27.1875 C 103.921875 29 103.46875 30.769531 102.921875 32.582031 C 102.289062 34.710938 102.425781 35.074219 104.511719 36.296875 C 106.511719 33.441406 108.507812 30.585938 110.503906 27.683594 C 109.914062 27.683594 109.460938 27.910156 109.050781 28.046875 C 106.875 28.863281 105.785156 28.183594 105.648438 25.871094 C 105.601562 24.691406 105.648438 23.46875 105.648438 22.109375 C 103.378906 23.96875 101.335938 26.1875 98.203125 25.328125 C 95.113281 24.464844 94.570312 21.382812 93.300781 18.800781 C 92.753906 20.023438 92.34375 21.066406 91.847656 22.0625 C 90.03125 25.78125 87.261719 26.507812 83.8125 24.105469 C 82.992188 23.515625 82.265625 22.878906 81.359375 22.109375 C 81.359375 23.46875 81.40625 24.648438 81.359375 25.78125 C 81.269531 28.003906 79.996094 28.820312 77.910156 28.003906 C 77.410156 27.820312 76.957031 27.59375 76.5 27.367188 C 76.457031 27.457031 76.367188 27.503906 76.320312 27.59375 C 78.273438 30.585938 80.222656 33.578125 82.222656 36.660156 C 82.992188 36.027344 83.539062 35.527344 83.945312 34.9375 Z M 100.925781 221.894531 C 100.5625 217.453125 100.019531 213.007812 99.5625 208.566406 C 99.382812 208.566406 99.199219 208.566406 99.019531 208.613281 C 97.976562 211.785156 96.886719 215.003906 95.933594 218.175781 C 95.75 218.8125 95.796875 219.539062 95.933594 220.21875 C 96.839844 224.207031 96.613281 228.195312 96.25 232.183594 C 95.839844 236.402344 96.660156 240.074219 100.699219 242.339844 C 102.195312 243.203125 102.46875 243.203125 103.332031 241.707031 C 103.648438 241.160156 103.921875 240.570312 104.058594 239.984375 C 104.875 237.171875 104.558594 234.453125 103.332031 231.867188 C 101.925781 228.648438 101.199219 225.339844 100.925781 221.894531 Z M 100.925781 221.894531 " fill-opacity="1" fill-rule="nonzero"/></g></svg>